<svg xmlns="http://www.w3.org/2000/svg" width="980" height="520" viewBox="0 0 980 520">
  <rect width="980" height="520" fill="#f7fafc"/>
  <text x="40" y="52" font-size="28" font-family="Arial, 'Microsoft YaHei'" font-weight="700" fill="#18202a">Day 1-2：硬件层次与性能直觉</text>
  <rect x="70" y="100" width="230" height="320" rx="10" fill="#e8f2ff" stroke="#2f6fb2" stroke-width="2"/>
  <text x="145" y="135" font-size="22" font-family="Arial, 'Microsoft YaHei'" font-weight="700" fill="#1b4f8a">CPU</text>
  <rect x="105" y="165" width="160" height="46" rx="6" fill="#ffffff" stroke="#7aa7d9"/>
  <text x="145" y="194" font-size="16" font-family="Arial, 'Microsoft YaHei'" fill="#223">寄存器</text>
  <rect x="105" y="225" width="160" height="46" rx="6" fill="#ffffff" stroke="#7aa7d9"/>
  <text x="155" y="254" font-size="16" font-family="Arial, 'Microsoft YaHei'" fill="#223">L1/L2</text>
  <rect x="105" y="285" width="160" height="46" rx="6" fill="#ffffff" stroke="#7aa7d9"/>
  <text x="160" y="314" font-size="16" font-family="Arial, 'Microsoft YaHei'" fill="#223">DRAM</text>
  <text x="98" y="370" font-size="15" font-family="Arial, 'Microsoft YaHei'" fill="#405060">强单线程、复杂控制</text>
  <text x="98" y="397" font-size="15" font-family="Arial, 'Microsoft YaHei'" fill="#405060">cache 自动管理为主</text>
  <rect x="370" y="100" width="540" height="320" rx="10" fill="#fff7e8" stroke="#c9801c" stroke-width="2"/>
  <text x="610" y="135" font-size="22" font-family="Arial, 'Microsoft YaHei'" font-weight="700" fill="#8a5315">GPU/NPU</text>
  <rect x="405" y="165" width="145" height="46" rx="6" fill="#ffffff" stroke="#d9a44f"/>
  <text x="445" y="194" font-size="16" font-family="Arial, 'Microsoft YaHei'" fill="#223">寄存器</text>
  <rect x="580" y="165" width="145" height="46" rx="6" fill="#ffffff" stroke="#d9a44f"/>
  <text x="620" y="194" font-size="16" font-family="Arial, 'Microsoft YaHei'" fill="#223">片上 SRAM</text>
  <rect x="755" y="165" width="110" height="46" rx="6" fill="#ffffff" stroke="#d9a44f"/>
  <text x="798" y="194" font-size="16" font-family="Arial, 'Microsoft YaHei'" fill="#223">L2</text>
  <rect x="470" y="255" width="330" height="56" rx="6" fill="#ffffff" stroke="#d9a44f"/>
  <text x="582" y="290" font-size="17" font-family="Arial, 'Microsoft YaHei'" fill="#223">HBM / Global Memory</text>
  <path d="M635 240 L635 218" stroke="#8a5315" stroke-width="3" marker-end="url(#arrow)"/>
  <path d="M635 240 L477 218" stroke="#8a5315" stroke-width="3" marker-end="url(#arrow)"/>
  <path d="M635 240 L810 218" stroke="#8a5315" stroke-width="3" marker-end="url(#arrow)"/>
  <text x="428" y="365" font-size="15" font-family="Arial, 'Microsoft YaHei'" fill="#405060">大量线程隐藏延迟；性能关键是数据复用和内存访问模式</text>
  <defs>
    <marker id="arrow" viewBox="0 0 10 10" refX="8" refY="5" markerWidth="6" markerHeight="6" orient="auto-start-reverse">
      <path d="M 0 0 L 10 5 L 0 10 z" fill="#8a5315"/>
    </marker>
  </defs>
</svg>
