<svg xmlns="http://www.w3.org/2000/svg" width="980" height="520" viewBox="0 0 980 520">
  <rect width="980" height="520" fill="#f7fafc"/>
  <text x="40" y="52" font-size="28" font-family="Arial, 'Microsoft YaHei'" font-weight="700" fill="#18202a">Day 7：PyTorch Custom Op 接入链路</text>
  <g font-family="Arial, 'Microsoft YaHei'" font-size="17" text-anchor="middle">
    <rect x="70" y="140" width="150" height="75" rx="9" fill="#e8f2ff" stroke="#2f6fb2" stroke-width="2"/>
    <text x="145" y="170">Python 调用</text><text x="145" y="195">torch.ops.xxx</text>
    <rect x="270" y="140" width="150" height="75" rx="9" fill="#fff" stroke="#8c8c8c" stroke-width="2"/>
    <text x="345" y="170">Schema</text><text x="345" y="195">参数/返回值</text>
    <rect x="470" y="140" width="150" height="75" rx="9" fill="#fff0d8" stroke="#c9801c" stroke-width="2"/>
    <text x="545" y="170">Dispatcher</text><text x="545" y="195">选择后端</text>
    <rect x="700" y="95" width="165" height="70" rx="9" fill="#dff6e8" stroke="#3a7d44" stroke-width="2"/>
    <text x="783" y="135">CPU reference</text>
    <rect x="700" y="200" width="165" height="70" rx="9" fill="#dff6e8" stroke="#3a7d44" stroke-width="2"/>
    <text x="783" y="240">CUDA/Triton</text>
    <g stroke="#555" stroke-width="2" marker-end="url(#arrow7)">
      <line x1="220" y1="178" x2="267" y2="178"/>
      <line x1="420" y1="178" x2="467" y2="178"/>
      <line x1="620" y1="178" x2="697" y2="135"/>
      <line x1="620" y1="178" x2="697" y2="235"/>
    </g>
  </g>
  <rect x="140" y="340" width="700" height="70" rx="10" fill="#ffffff" stroke="#c8c8c8"/>
  <text x="165" y="370" font-size="17" font-family="Arial, 'Microsoft YaHei'" fill="#20242b">验收闭环：opcheck / randomized tests / dtype tests / non-contiguous tests / benchmark。</text>
  <defs>
    <marker id="arrow7" viewBox="0 0 10 10" refX="8" refY="5" markerWidth="6" markerHeight="6" orient="auto-start-reverse">
      <path d="M 0 0 L 10 5 L 0 10 z" fill="#555"/>
    </marker>
  </defs>
</svg>
